<svg width="110" height="23" viewBox="0 0 110 23" fill="none" xmlns="http://www.w3.org/2000/svg">
<path d="M47.4917 6.37488C47.1616 6.03386 46.7662 5.7627 46.3292 5.57751C45.8921 5.39232 45.4223 5.29689 44.9476 5.29688V12.6543H37.3477V8.91898C37.3447 8.44478 37.2479 7.97586 37.0629 7.53923C36.8778 7.1026 36.6083 6.70689 36.2697 6.37488C35.9395 6.03386 35.5442 5.7627 35.1071 5.57751C34.6701 5.39232 34.2002 5.29689 33.7256 5.29688V19.0091C33.7286 19.4833 33.8254 19.9522 34.0104 20.3889C34.1954 20.8255 34.465 21.2212 34.8036 21.5532C35.1333 21.8934 35.5278 22.164 35.9639 22.3491C36.3999 22.5343 36.8686 22.6302 37.3423 22.6312V15.1445H44.9638V18.9876C44.9595 19.4631 45.0497 19.9347 45.2292 20.375C45.4087 20.8153 45.6739 21.2156 46.0094 21.5526C46.3449 21.8896 46.744 22.1566 47.1835 22.338C47.623 22.5195 48.0942 22.6118 48.5698 22.6097V8.91898C48.5707 8.44418 48.4756 7.97409 48.2904 7.53691C48.1052 7.09973 47.8335 6.70449 47.4917 6.37488Z" fill="#004150"/>
<path d="M60.3956 19.8006H55.7871V15.2729H61.5598C61.5598 14.5582 61.2759 13.8727 60.7705 13.3673C60.2651 12.8619 59.5796 12.5779 58.8648 12.5779H55.8087V8.13652H63.22C63.22 7.39267 62.9248 6.67921 62.3994 6.15272C61.8739 5.62623 61.161 5.32974 60.4171 5.32831H55.0271C54.6553 5.32404 54.2864 5.39348 53.9417 5.53262C53.5969 5.67177 53.2832 5.87786 53.0186 6.13898C52.7539 6.4001 52.5437 6.71108 52.3999 7.05394C52.2562 7.3968 52.1818 7.76475 52.1812 8.13652V19.8006C52.1812 20.5453 52.477 21.2596 53.0037 21.7863C53.5303 22.3129 54.2446 22.6088 54.9894 22.6088H63.1984C63.1984 21.8649 62.9033 21.1515 62.3778 20.625C61.8523 20.0985 61.1394 19.802 60.3956 19.8006Z" fill="#004150"/>
<path d="M73.2241 19.6985H69.4511V8.89149C69.4511 7.94228 69.074 7.03195 68.4028 6.36076C67.7316 5.68957 66.8213 5.3125 65.8721 5.3125V19.0355C65.8735 19.9838 66.2512 20.8928 66.9222 21.5628C67.5933 22.2328 68.5028 22.6091 69.4511 22.6091H76.1347C76.1354 22.2267 76.0606 21.8479 75.9146 21.4944C75.7686 21.141 75.5542 20.8198 75.2838 20.5494C75.0134 20.279 74.6922 20.0646 74.3388 19.9186C73.9853 19.7726 73.6065 19.6978 73.2241 19.6985Z" fill="#004150"/>
<path d="M88.5102 7.02134C88.308 6.52538 87.9626 6.10092 87.5181 5.80213C87.0736 5.50333 86.5502 5.34375 86.0146 5.34375C85.479 5.34375 84.9555 5.50333 84.5111 5.80213C84.0666 6.10092 83.7212 6.52538 83.519 7.02134L77.4229 22.6093C78.5005 22.6099 79.5519 22.2765 80.4323 21.6548C81.3126 21.0332 81.9786 20.1539 82.3386 19.1381L82.565 18.5183H89.448L89.6636 19.1274C90.0292 20.1425 90.6977 21.021 91.5789 21.6437C92.46 22.2665 93.5111 22.6036 94.5901 22.6093L88.5102 7.02134ZM83.4381 16.0443L85.3031 10.7728C85.4109 10.4925 85.5295 10.1637 85.648 9.79182C85.8852 9.11806 86.1008 9.06416 86.3488 9.79182C86.4943 10.1637 86.6021 10.4979 86.7099 10.7728L88.5748 16.0604L83.4381 16.0443Z" fill="#004150"/>
<path d="M105.952 16.3842C105.796 16.1536 105.615 15.9403 105.413 15.7482C105.214 15.577 105.001 15.422 104.777 15.2847C105.329 15.1032 105.851 14.8397 106.324 14.5031C106.759 14.1884 107.144 13.8105 107.467 13.382C107.772 12.9582 108.009 12.4889 108.168 11.9914C108.338 11.4694 108.424 10.9234 108.421 10.3744C108.426 9.67642 108.294 8.98431 108.033 8.33692C107.774 7.71312 107.36 7.16578 106.831 6.74686C106.203 6.26418 105.487 5.90895 104.723 5.70119C103.711 5.43969 102.669 5.31461 101.624 5.32928C100.232 5.32774 98.8937 5.86469 97.8888 6.82771C97.4187 7.26609 97.0379 7.79142 96.7677 8.37465C96.3893 9.11741 96.1934 9.93965 96.1963 10.7732V19.0469C96.1963 19.5162 96.289 19.9808 96.4691 20.4141C96.6491 20.8474 96.913 21.2409 97.2456 21.572C97.5781 21.903 97.9728 22.1651 98.4069 22.3432C98.841 22.5213 99.3061 22.6119 99.7753 22.6097V16.0177H100.993C101.244 16.0038 101.495 16.0538 101.721 16.1633C101.899 16.2822 102.053 16.434 102.174 16.6106L103.705 19.09C104.37 20.1622 105.296 21.0477 106.398 21.6633C107.499 22.279 108.739 22.6047 110 22.6097L105.952 16.3842ZM104.136 12.6759C103.833 12.9488 103.477 13.1562 103.09 13.285C102.606 13.4402 102.1 13.5131 101.592 13.5006H99.7753C99.7753 13.5006 99.6945 11.005 99.7753 10.1749C99.9586 8.20217 103.009 8.09437 103.753 8.48784C106.276 9.81918 104.4 12.4118 104.136 12.6759Z" fill="#004150"/>
<path d="M22.4807 20.1836H11.9486C11.508 20.1836 11.1509 20.5407 11.1509 20.9813V21.8114C11.1509 22.252 11.508 22.6091 11.9486 22.6091H22.4807C22.9213 22.6091 23.2785 22.252 23.2785 21.8114V20.9813C23.2785 20.5407 22.9213 20.1836 22.4807 20.1836Z" fill="#E44025"/>
<path d="M19.2588 8.35006L13.1569 14.452C12.7485 14.8604 12.7485 15.5224 13.1569 15.9308L13.9268 16.7007C14.3351 17.1091 14.9972 17.1091 15.4056 16.7007L21.5075 10.5987C21.9159 10.1904 21.9159 9.52831 21.5075 9.11995L20.7376 8.35006C20.3293 7.94171 19.6672 7.94171 19.2588 8.35006Z" fill="#E44025"/>
<path d="M11.6769 0.739116L5.55971 6.8563C5.15135 7.26466 5.15135 7.92674 5.55971 8.3351L6.3296 9.10499C6.73796 9.51335 7.40004 9.51335 7.8084 9.10499L13.9256 2.9878C14.3339 2.57944 14.3339 1.91736 13.9256 1.50901L13.1557 0.739116C12.7473 0.330758 12.0853 0.330757 11.6769 0.739116Z" fill="#E44025"/>
<path d="M18.2817 8.03488L12.8162 13.495C12.7569 11.5761 11.2908 9.95374 8.98926 9.47402L14.3793 4.08398C14.4763 5.98128 15.9694 7.59829 18.2817 8.03488Z" fill="#E44025"/>
<path d="M0.331586 21.0044L10.2715 11.0644L11.2777 12.0706L1.33778 22.0105C1.24984 22.0985 1.13056 22.1479 1.00619 22.1479C0.881822 22.1479 0.762547 22.0985 0.674605 22.0105L0.331585 21.6675C0.243643 21.5796 0.194237 21.4603 0.194237 21.3359C0.194237 21.2116 0.243644 21.0923 0.331586 21.0044Z" fill="#E44025"/>
</svg>
